<svg width="194" height="160" viewBox="0 0 194 160" fill="none" xmlns="http://www.w3.org/2000/svg">
<path d="M24.9088 67.103L92.937 24.1677L160.965 67.103V129.747H24.9088V67.103Z" fill="#E6E7E8"/>
<path fill-rule="evenodd" clip-rule="evenodd" d="M24.5937 129.747C24.5937 129.92 24.7348 130.061 24.9088 130.061H160.965C161.137 130.076 161.289 129.95 161.306 129.778V67.1345C161.305 67.026 161.248 66.9255 161.154 66.8702L93.1008 23.9286C92.9983 23.8663 92.8694 23.8663 92.7669 23.9286L24.7386 66.8387C24.6466 66.8947 24.5914 66.9954 24.5937 67.1031V129.747ZM160.682 129.432H25.2049V67.2793L92.937 24.558L160.682 67.2793V129.432Z" fill="#231F20"/>
<path d="M109.509 50.2398C111.772 46.5072 112.345 41.9688 112.137 37.6129C111.986 32.8474 110.728 28.1821 108.463 23.9852C107.544 22.1829 106.193 20.6349 104.531 19.4783C102.49 18.2194 101.097 19.0691 99.0998 18.7292C97.411 18.4397 95.6467 17.2374 93.7752 16.929C89.4579 16.1916 85.0214 17.1185 81.3617 19.5223C74.9597 23.8467 72.0044 32.1115 65.3881 36.1274C58.9041 40.0426 50.6054 38.8656 43.3337 41.0309C40.2644 41.9498 37.4046 43.4595 34.9153 45.4749C33.1956 46.79 31.7883 48.4688 30.7943 50.3909C29.0866 53.9536 29.534 58.1962 30.7943 61.954C32.0545 65.8189 34.1843 69.5075 37.4862 71.9058C40.2524 73.9011 43.6488 74.8202 47.0074 75.4244C51.5758 76.249 56.308 76.5575 60.8701 75.5692C64.2371 74.8904 67.3753 73.3653 69.988 71.1378C71.1096 70.137 71.7271 68.7711 72.7732 67.7765C74.2161 66.4106 76.4657 65.5734 78.1544 64.5285C80.7946 62.8856 83.4412 61.1358 86.4532 60.3552C94.1029 58.3661 104.897 57.8248 109.509 50.2398Z" fill="white"/>
<path fill-rule="evenodd" clip-rule="evenodd" d="M46.938 75.7329C49.5228 76.2215 52.1461 76.4785 54.7767 76.5009C56.8423 76.5245 58.9044 76.324 60.9267 75.9029C64.3625 75.2113 67.5617 73.646 70.2148 71.3582C70.7896 70.8131 71.3012 70.2049 71.7397 69.5453C72.1105 68.9891 72.5324 68.4686 72.9999 67.9906C74.033 67.1199 75.1799 66.3936 76.4089 65.8315C77.0705 65.4916 77.7006 65.1454 78.3308 64.7741L78.9609 64.3649L79.0125 64.3328C81.3845 62.8573 83.8261 61.3385 86.5224 60.6448C87.9678 60.2674 89.5103 59.9526 91.1444 59.6192L91.3932 59.5684L91.3939 59.5683C98.2369 58.171 105.974 56.5909 109.755 50.4098C111.797 47.0674 112.673 42.7871 112.427 37.6256C112.282 32.8124 111.011 28.1 108.715 23.8656C107.777 22.0194 106.39 20.4375 104.683 19.2643C103.606 18.6001 102.33 18.3349 101.078 18.5152C100.436 18.5752 99.7889 18.5604 99.1501 18.4712C98.3052 18.2811 97.4834 18.0004 96.6989 17.634C95.777 17.1853 94.8036 16.8513 93.8003 16.6395C89.4135 15.9017 84.9099 16.8532 81.1978 19.3021C78.0724 21.4296 75.7283 24.5077 73.4662 27.485L73.4438 27.5145C71.0626 30.6463 68.6037 33.8804 65.2368 35.9134C61.3678 38.2487 56.9254 38.7397 52.2247 39.2559C49.1963 39.5026 46.1957 40.0166 43.258 40.7917C40.1539 41.7204 37.2618 43.2472 34.7451 45.2861C32.9853 46.6284 31.5509 48.3496 30.5484 50.3217C28.6139 54.3125 29.4709 58.9516 30.5043 62.0989C31.9536 66.5051 34.2914 70.0111 37.2971 72.1702C40.3027 74.3292 44.0268 75.2105 46.938 75.7329ZM81.5255 19.8119C84.3015 17.9647 87.5663 16.9872 90.9017 17.0045C91.8632 17.0119 92.8223 17.1003 93.7688 17.2689C94.7182 17.4669 95.6405 17.7776 96.5162 18.1942C97.3374 18.5817 98.1998 18.8752 99.0871 19.0692C99.7696 19.1652 100.461 19.1842 101.148 19.1258C102.278 18.9374 103.438 19.1608 104.418 19.7553C106.041 20.8839 107.358 22.3981 108.249 24.1615C110.501 28.3162 111.746 32.9406 111.885 37.6633C112.124 42.7116 111.255 46.9038 109.301 50.1266C105.672 56.0938 98.0474 57.6486 91.3113 59.0145C89.5659 59.367 87.9528 59.7006 86.4153 60.0972C83.6261 60.8047 81.1425 62.3529 78.7411 63.8499L78.7025 63.8739L78.0346 64.2894C77.4486 64.6482 76.8185 64.9755 76.1442 65.3217C74.8661 65.9074 73.6746 66.6656 72.6029 67.5751C72.1041 68.0765 71.6546 68.6245 71.2608 69.2117C70.8453 69.8364 70.3613 70.4128 69.8178 70.9301C67.2394 73.1497 64.1315 74.6674 60.7944 75.3364C56.8561 76.1924 52.3696 76.1421 47.064 75.1916C44.2158 74.6754 40.5485 73.8005 37.6562 71.717C34.764 69.6335 32.4892 66.247 31.0777 61.91C30.0632 58.8572 29.2504 54.3943 31.0777 50.5798C32.0502 48.6936 33.4324 47.0484 35.1231 45.7644C37.5816 43.768 40.4072 42.2712 43.4408 41.3582C46.3431 40.5925 49.308 40.0869 52.3003 39.8475L52.3436 39.8428C56.8734 39.3407 61.5695 38.8202 65.5329 36.4233C68.9973 34.3381 71.4955 31.0496 73.9103 27.8711L73.9262 27.8501L73.9589 27.8071C76.1856 24.8809 78.4843 21.8602 81.5255 19.8119Z" fill="#231F20"/>
<path d="M135.219 44.0711L131.904 56.5344L139.888 57.957L144.437 41.3078C144.437 41.3078 137.342 35.8819 136.246 35.8441C135.149 35.8064 135.219 44.0711 135.219 44.0711Z" fill="white"/>
<path fill-rule="evenodd" clip-rule="evenodd" d="M139.831 58.2717H139.888C140.02 58.2699 140.137 58.1838 140.178 58.0577L144.733 41.4085C144.765 41.2847 144.721 41.1536 144.62 41.0749C143.416 40.1622 137.38 35.586 136.252 35.5483C136.095 35.5421 135.943 35.6041 135.836 35.7182C134.903 36.6183 134.903 42.7367 134.903 44.0711L131.614 56.4777C131.59 56.5623 131.602 56.6534 131.649 56.728C131.696 56.8026 131.773 56.8535 131.86 56.868L139.831 58.2717ZM139.673 57.5982L132.326 56.3015L135.552 44.1718C135.556 44.1447 135.556 44.1172 135.552 44.09C135.527 40.565 135.805 36.4925 136.252 36.1588C136.857 36.1777 140.675 38.834 144.084 41.4274L139.673 57.5982Z" fill="#231F20"/>
<path d="M126.592 35.9197C126.592 35.9197 127.72 38.4376 129.346 38.8467C130.971 39.2559 134.506 37.5123 134.916 37.7389C135.326 37.9655 144.651 44.9399 145.559 45.1476C146.466 45.3553 148.136 43.1585 148.848 40.5463C148.848 40.5463 139.774 34.365 139.182 33.7103C138.59 33.0557 137.884 29.1405 137.002 27.7053L126.592 35.9197Z" fill="white"/>
<path fill-rule="evenodd" clip-rule="evenodd" d="M145.458 45.4812C145.523 45.4873 145.588 45.4873 145.653 45.4812C146.882 45.4812 148.489 42.976 149.138 40.6847C149.176 40.556 149.125 40.4176 149.012 40.3448C145.376 37.8648 139.818 34.0125 139.402 33.553C139.014 32.7751 138.722 31.9528 138.533 31.1044C138.242 29.8933 137.819 28.7176 137.273 27.5983C137.223 27.5238 137.146 27.4717 137.058 27.4535C136.969 27.4389 136.878 27.4617 136.806 27.5165L126.416 35.6994C126.302 35.7867 126.265 35.9418 126.327 36.0708C126.328 36.0726 126.329 36.075 126.331 36.078C126.416 36.2603 127.566 38.7222 129.289 39.1803C130.379 39.4683 132.168 38.8785 133.483 38.4448L133.504 38.4376C133.654 38.3852 133.816 38.3216 133.972 38.2602C134.341 38.115 134.681 37.9816 134.765 38.0347C134.884 38.1103 135.855 38.809 136.97 39.6272C141.917 43.234 144.891 45.3427 145.458 45.4812ZM135.067 37.4619C134.987 37.4212 134.898 37.4017 134.809 37.4053C134.284 37.4681 133.769 37.5993 133.278 37.7955L133.264 37.8001C132.098 38.1841 130.338 38.7639 129.421 38.5257C128.243 38.2299 127.291 36.5996 126.983 36.0079L136.882 28.1837C137.297 29.171 137.641 30.1871 137.909 31.224C138.331 32.6592 138.602 33.5656 138.924 33.9181C139.491 34.5538 146.926 39.6398 148.457 40.6784C147.695 43.2655 146.195 45.0028 145.603 44.8454C145.096 44.7107 141.246 41.9209 138.568 39.98C138.12 39.6547 137.704 39.3533 137.342 39.0922C137.17 38.9673 137.009 38.8504 136.859 38.7412C135.715 37.909 135.184 37.5231 135.067 37.4619Z" fill="#231F20"/>
<path d="M136.51 30.0531C136.436 30.7186 136.561 31.3912 136.869 31.9855C137.38 32.8983 139.642 34.1131 139.642 34.1131L141.217 30.9658L138.13 28.7375L136.51 30.0531Z" fill="#231F20"/>
<path fill-rule="evenodd" clip-rule="evenodd" d="M139.497 34.3903C139.541 34.4153 139.591 34.4283 139.642 34.428C139.675 34.426 139.707 34.4175 139.736 34.4029C139.818 34.3782 139.886 34.3214 139.925 34.2455L141.501 31.0982C141.566 30.9609 141.523 30.7966 141.4 30.7079L138.319 28.4797C138.204 28.3893 138.042 28.3893 137.928 28.4797L136.309 29.8141C136.249 29.8632 136.211 29.9329 136.201 30.0092C136.118 30.7421 136.256 31.4831 136.598 32.1368C137.134 33.0999 139.251 34.2644 139.497 34.3903ZM137.147 31.8347C136.889 31.3383 136.774 30.7808 136.813 30.2233L138.142 29.1217L140.814 31.0541L139.51 33.6853C138.779 33.2635 137.474 32.4641 137.147 31.8347Z" fill="#231F20"/>
<path d="M146.391 38.8781C146.391 38.8781 147.216 36.2785 145.76 36.0959C145.734 35.6306 145.466 35.213 145.053 34.9944C144.641 34.7757 144.145 34.7876 143.744 35.0259C143.744 35.0259 143.278 33.0934 141.753 33.4837C140.228 33.874 139.018 37.5185 139.232 38.4375C139.447 39.3565 140.631 38.7963 141.23 37.934C141.23 37.934 140.455 39.3691 140.971 39.7468C141.728 40.3007 142.522 39.3188 143.164 38.6012C143.164 38.6012 142.213 40.2818 143.612 40.4329C144.689 40.5525 145.691 38.3809 145.691 38.3809L146.391 38.8781Z" fill="white"/>
<path fill-rule="evenodd" clip-rule="evenodd" d="M143.549 40.7539H143.668C144.632 40.7539 145.439 39.4824 145.742 38.8403L146.17 39.1362C146.253 39.1924 146.358 39.2064 146.454 39.1739C146.548 39.1439 146.622 39.0682 146.649 38.9725C146.725 38.79 147.21 37.1974 146.649 36.3225C146.497 36.0815 146.261 35.9045 145.987 35.8252C145.874 35.3565 145.585 34.9489 145.181 34.6859C144.789 34.4878 144.333 34.4605 143.92 34.6104C143.738 34.0992 143.398 33.6587 142.95 33.3515C142.56 33.117 142.088 33.0576 141.652 33.1878C139.913 33.6347 138.659 37.4492 138.892 38.513C138.942 38.8627 139.207 39.1429 139.554 39.2117C139.872 39.2559 140.195 39.1868 140.467 39.0166C140.365 39.3731 140.475 39.7567 140.751 40.0048C141.375 40.4643 141.98 40.1748 142.503 39.7153C142.506 40.2899 142.973 40.7539 143.549 40.7539ZM143.322 38.3494C143.268 38.3072 143.201 38.285 143.133 38.2864C143.045 38.2866 142.96 38.323 142.9 38.3871L142.767 38.5382C142.087 39.2935 141.564 39.8097 141.123 39.4887C140.978 39.3817 141.154 38.7019 141.476 38.0724C141.55 37.9254 141.501 37.7458 141.362 37.657C141.22 37.5704 141.035 37.609 140.94 37.7451C140.671 38.2023 140.206 38.5109 139.68 38.5823C139.636 38.576 139.554 38.5571 139.51 38.3619C139.339 37.5625 140.467 34.1257 141.81 33.7858C142.081 33.7007 142.376 33.7327 142.622 33.8739C143.017 34.18 143.297 34.6103 143.416 35.0951C143.441 35.1854 143.503 35.261 143.586 35.3028C143.671 35.3408 143.767 35.3408 143.851 35.3028C144.168 35.1194 144.551 35.0915 144.891 35.2272C145.183 35.4441 145.378 35.7676 145.433 36.1274C145.453 36.2674 145.564 36.3774 145.704 36.398C145.88 36.4107 146.04 36.5035 146.138 36.6498C146.345 37.1966 146.365 37.7964 146.195 38.3556L145.842 38.1102C145.766 38.0551 145.668 38.0388 145.578 38.0661C145.489 38.0913 145.416 38.1532 145.376 38.2361C145.08 38.8655 144.248 40.1937 143.618 40.1244C143.271 40.0867 143.183 39.9482 143.183 39.9041C143.032 39.6083 143.271 39.004 143.41 38.7585C143.486 38.6191 143.448 38.4452 143.322 38.3494Z" fill="#231F20"/>
<path d="M139.654 31.0794C139.654 31.0794 138.791 29.5812 137.884 30.8968C136.976 32.2124 135.886 34.6736 137.399 34.9379C138.911 35.2023 140.045 32.3823 139.654 31.0794Z" fill="white"/>
<path fill-rule="evenodd" clip-rule="evenodd" d="M137.348 35.2588C137.43 35.265 137.512 35.265 137.594 35.2588C138.136 35.2334 138.641 34.9766 138.98 34.5538C139.811 33.568 140.168 32.2685 139.957 30.9974L139.925 30.9281C139.925 30.9268 139.924 30.9252 139.923 30.9235C139.86 30.8211 139.404 30.0778 138.722 30.0469C138.262 30.0644 137.845 30.3227 137.626 30.7267C136.976 31.6583 136 33.5278 136.441 34.579C136.6 34.9512 136.946 35.2104 137.348 35.2588ZM138.142 31.0603C138.268 30.8778 138.47 30.6574 138.678 30.6574H138.69C138.974 30.67 139.258 31.0288 139.358 31.1925C139.494 32.2438 139.186 33.3043 138.508 34.1195C138.263 34.455 137.864 34.6425 137.449 34.6167C137.261 34.6026 137.097 34.4865 137.021 34.3146C136.756 33.6788 137.38 32.1619 138.142 31.0603Z" fill="#231F20"/>
<path d="M135.212 44.9147C135.212 44.9147 134.217 40.1623 134.122 39.3125C133.964 37.8711 134.305 35.6176 135.571 35.2651C136.838 34.9126 139.736 34.579 139.258 35.8505C138.823 37.0087 136.283 37.229 136.283 37.229C136.283 37.229 138.035 38.9915 137.77 40.7477" fill="white"/>
<path d="M135.212 45.2294C135.064 45.23 134.936 45.1279 134.903 44.9839C134.866 44.7887 133.908 40.2 133.813 39.3188C133.649 37.8458 133.964 35.3595 135.489 34.9126C136.283 34.6922 138.709 34.239 139.421 35.0133C139.641 35.2577 139.693 35.6096 139.554 35.9071C139.195 36.8765 137.745 37.2604 136.907 37.4115C137.436 38.0787 138.287 39.3943 138.079 40.7413C138.062 40.8538 137.987 40.9487 137.881 40.9903C137.775 41.0319 137.655 41.0139 137.566 40.9431C137.477 40.8723 137.432 40.7594 137.449 40.6469C137.689 39.067 136.069 37.4115 136.056 37.3989C135.97 37.3108 135.941 37.1819 135.981 37.0653C136.024 36.9514 136.13 36.8729 136.252 36.8639C136.882 36.8072 138.659 36.4862 138.955 35.6868C139.024 35.5168 138.955 35.4665 138.955 35.4413C138.621 35.0699 136.876 35.1832 135.653 35.5168C134.626 35.8001 134.286 37.8521 134.437 39.2243C134.532 40.0489 135.515 44.7573 135.521 44.8013C135.539 44.8833 135.524 44.9693 135.477 45.0394C135.431 45.1095 135.358 45.1576 135.275 45.1727L135.212 45.2294Z" fill="#231F20"/>
<path d="M153.82 26.8933C153.82 26.8933 143.322 25.8547 139.037 28.3347C137.96 28.977 136.929 29.692 135.949 30.4749C133.624 32.294 131.438 34.3586 129.736 35.5105C126.359 37.7766 123.095 38.2361 120.87 34.6293C118.98 31.5512 120.083 30.0909 122.641 27.3528C123.901 25.9994 126.573 23.7649 128.873 21.2911C130.233 19.9159 131.379 18.346 132.276 16.6331C134.217 12.5542 133.668 6.30371 133.668 6.30371L153.82 26.8933Z" fill="white"/>
<path fill-rule="evenodd" clip-rule="evenodd" d="M124.009 37.4746C124.339 37.5488 124.678 37.5847 125.017 37.5816C126.46 37.5816 128.098 36.9773 129.925 35.7687C131.128 34.9103 132.284 33.99 133.391 33.0117C134.267 32.2627 135.206 31.4821 136.157 30.7331C137.124 29.959 138.143 29.2524 139.207 28.6181C143.132 26.3361 152.607 27.1109 153.699 27.2002C153.76 27.2053 153.795 27.2081 153.801 27.2081C153.934 27.2183 154.059 27.1457 154.116 27.0256C154.172 26.9077 154.149 26.7675 154.059 26.6731L133.895 6.06465C133.804 5.96558 133.658 5.93753 133.536 5.99541C133.416 6.05238 133.343 6.17754 133.353 6.31014C133.36 6.37308 133.883 12.5418 131.992 16.5073C131.113 18.1916 129.985 19.7342 128.646 21.0835C127.317 22.4809 125.899 23.8279 124.639 24.9987C123.731 25.8359 122.95 26.5661 122.408 27.1452C119.825 29.9148 118.571 31.5073 120.606 34.8057C121.316 36.1316 122.551 37.0996 124.009 37.4746ZM132.566 16.778C134.103 13.5111 134.109 8.99162 134.034 7.10325L153.026 26.5346C150.417 26.3395 142.553 25.9744 138.905 28.0957C137.806 28.7466 136.753 29.4721 135.754 30.2673C134.929 30.9128 134.127 31.5863 133.344 32.2435C133.219 32.349 133.094 32.4541 132.969 32.5585C131.882 33.521 130.744 34.4246 129.56 35.2652C127.462 36.6689 125.641 37.2165 124.141 36.8892C122.852 36.5417 121.766 35.6754 121.141 34.4972C119.339 31.5577 120.348 30.2484 122.868 27.5732C123.38 27.0251 124.139 26.3204 125.009 25.5121L125.067 25.4582L125.09 25.4368C126.351 24.265 127.772 22.9442 129.106 21.5115C130.488 20.1139 131.654 18.5186 132.566 16.778Z" fill="#231F20"/>
<path d="M136.51 30.0531C134.185 31.8722 131.375 34.2831 129.736 35.5042C125.993 38.299 123.624 38.5949 121.179 35.1391C118.659 31.589 120.083 30.1035 122.641 27.359C123.901 26.0057 126.573 23.7711 128.873 21.2974C128.873 21.2974 129.018 23.8718 131.583 27.0128C132.842 28.5447 134.575 29.6143 136.51 30.0531Z" fill="#231F20"/>
<path fill-rule="evenodd" clip-rule="evenodd" d="M124.412 37.9342C124.604 37.9649 124.797 37.9797 124.992 37.9782C126.34 37.9782 127.915 37.2732 129.925 35.7562C130.753 35.1407 131.87 34.2248 133.068 33.2426C133.157 33.1702 133.245 33.0974 133.334 33.0244C133.47 32.914 133.606 32.8031 133.742 32.692C134.745 31.8724 135.762 31.0424 136.706 30.3051C136.8 30.2249 136.844 30.0994 136.819 29.9778C136.786 29.8589 136.688 29.7688 136.567 29.7449C134.708 29.3131 133.043 28.2824 131.828 26.8116C129.371 23.7965 129.188 21.2787 129.188 21.2787C129.18 21.1532 129.099 21.0443 128.98 21.0018C128.863 20.957 128.73 20.9896 128.646 21.0836C127.317 22.481 125.899 23.828 124.639 24.9988C124.565 25.0669 124.492 25.1342 124.42 25.2006C123.606 25.9512 122.903 26.5985 122.377 27.1767L122.368 27.186C119.815 29.9249 118.271 31.5808 120.921 35.3219C122.043 36.9081 123.152 37.739 124.412 37.9342ZM125.067 25.4583C126.195 24.4134 127.455 23.2426 128.659 21.9837C129.127 23.9117 130.045 25.7018 131.337 27.2082C132.502 28.6231 134.058 29.665 135.811 30.2044C134.878 30.9472 133.895 31.7529 132.937 32.5397C132.697 32.7366 132.459 32.9324 132.225 33.1248C131.202 33.9655 130.26 34.7404 129.547 35.2527C127.361 36.883 125.811 37.5124 124.506 37.311C123.429 37.141 122.452 36.392 121.438 34.9568C119.094 31.6359 120.341 30.2934 122.848 27.595L122.868 27.5733C123.38 27.0252 124.139 26.3205 125.009 25.5122L125.067 25.4583Z" fill="#231F20"/>
<path d="M156.731 26.0058C154.381 28.1144 149.169 26.3583 144.097 22.0717C142.797 20.9752 141.576 19.7889 140.442 18.5215C139.328 17.2777 138.301 15.959 137.367 14.5748C133.586 9.023 132.408 3.64743 134.777 1.52616C137.701 -1.09867 144.998 2.25004 151.066 9.01041C157.134 15.7708 159.667 23.3746 156.731 26.0058Z" fill="#7C5DFA"/>
<path fill-rule="evenodd" clip-rule="evenodd" d="M134.336 1.06671C135.193 0.338774 136.294 -0.0389328 137.418 0.00922509C141.299 0.00922509 146.819 3.37682 151.52 8.56355C154.291 11.535 156.447 15.0239 157.865 18.83C159.043 22.292 158.772 24.9987 157.153 26.4464C156.293 27.1895 155.182 27.5768 154.047 27.5291C151.23 27.5291 147.449 25.7037 143.668 22.5564C141.054 20.3277 138.752 17.7574 136.825 14.9148C132.774 8.93493 131.772 3.36423 134.336 1.06671ZM151.047 9.01676C146.384 3.82374 140.99 0.638682 137.418 0.638682C136.458 0.596789 135.517 0.913159 134.777 1.52622C132.408 3.64749 133.586 9.02306 137.367 14.5749C138.296 15.9609 139.32 17.2816 140.43 18.5279C141.563 19.7952 142.784 20.9815 144.084 22.078C147.72 25.1372 151.394 26.9059 154.059 26.9059C155.026 26.9515 155.975 26.6325 156.718 26.0121C159.667 23.381 157.122 15.7771 151.047 9.01676Z" fill="#231F20"/>
<path d="M148.287 16.8346L144.097 22.0717C142.797 20.9752 141.576 19.7889 140.442 18.5215C139.328 17.2777 138.301 15.9591 137.367 14.5748L143.429 10.8547L148.287 16.8346Z" fill="white"/>
<ellipse cx="145.846" cy="13.8667" rx="1.79509" ry="3.85392" transform="rotate(-39.4 145.846 13.8667)" fill="#231F20"/>
<path fill-rule="evenodd" clip-rule="evenodd" d="M144.204 15.1918C145.319 16.5514 146.655 17.3508 147.644 17.3508C147.942 17.3555 148.233 17.2602 148.47 17.0801C149.384 16.3248 148.936 14.3231 147.449 12.5166C146.85 11.7388 146.091 11.0973 145.225 10.6345C144.38 10.2568 143.662 10.2505 143.189 10.6345C142.717 11.0185 142.585 11.7298 142.818 12.6362C143.097 13.5752 143.569 14.4457 144.204 15.1918ZM143.586 11.1192C143.719 11.0207 143.882 10.9717 144.046 10.9807C144.354 11 144.655 11.0836 144.929 11.2262C145.722 11.6393 146.419 12.2139 146.977 12.9131C148.3 14.5245 148.621 16.1423 148.079 16.5892C147.537 17.0361 146.012 16.4066 144.689 14.7952C144.11 14.1206 143.681 13.3312 143.429 12.4788C143.265 11.8368 143.322 11.3395 143.586 11.1192Z" fill="#231F20"/>
<path d="M143.133 38.9159C143.077 38.9163 143.023 38.9011 142.975 38.8719C142.902 38.8311 142.849 38.7625 142.828 38.6818C142.807 38.6012 142.819 38.5153 142.862 38.4439C143.253 37.8034 143.737 37.2244 144.299 36.7254C144.382 36.6375 144.508 36.6051 144.623 36.6419C144.739 36.6788 144.823 36.7784 144.839 36.8982C144.856 37.0181 144.803 37.1369 144.702 37.2038C144.212 37.6642 143.788 38.1894 143.442 38.7649C143.377 38.8706 143.256 38.9294 143.133 38.9159Z" fill="#231F20"/>
<path d="M141.198 38.2487H141.148C141.066 38.232 140.994 38.1835 140.948 38.1139C140.902 38.0442 140.885 37.9591 140.902 37.8773C141.13 36.979 141.662 36.1871 142.408 35.6365C142.547 35.5322 142.745 35.5603 142.849 35.6994C142.954 35.8385 142.925 36.0357 142.786 36.14C142.169 36.5997 141.725 37.2539 141.526 37.9969C141.492 38.1492 141.354 38.2554 141.198 38.2487Z" fill="#231F20"/>
<path d="M145.66 38.6956C145.596 38.6961 145.534 38.6762 145.483 38.639C145.414 38.5908 145.368 38.5171 145.353 38.4344C145.339 38.3517 145.359 38.2667 145.408 38.1983L145.836 37.5689C145.94 37.4317 146.133 37.3987 146.277 37.4934C146.417 37.5957 146.451 37.7908 146.353 37.934L145.918 38.5634C145.86 38.6486 145.763 38.6984 145.66 38.6956Z" fill="#231F20"/>
<path d="M125.773 37.3423C125.705 37.3427 125.638 37.3206 125.584 37.2793C122.799 35.1644 121.072 32.5962 120.732 30.0532V29.9839C120.691 29.8468 120.748 29.6993 120.87 29.6251C120.941 29.579 121.027 29.5637 121.109 29.5827C121.192 29.6017 121.262 29.6534 121.305 29.7259C121.343 29.8026 121.364 29.8861 121.368 29.9713C121.69 32.3507 123.322 34.7678 125.981 36.7758C126.09 36.8577 126.134 37.0009 126.09 37.1301C126.045 37.2593 125.922 37.3451 125.785 37.3423H125.773Z" fill="white"/>
<path d="M124.216 27.2961C124.129 27.295 124.046 27.2559 123.99 27.1891C123.93 27.1311 123.897 27.0517 123.897 26.9688C123.897 26.8859 123.93 26.8065 123.99 26.7485L127.38 23.6012C127.437 23.5404 127.517 23.5059 127.6 23.5059C127.684 23.5059 127.764 23.5404 127.821 23.6012C127.88 23.6592 127.913 23.7387 127.913 23.8215C127.913 23.9044 127.88 23.9838 127.821 24.0419L124.431 27.1891C124.377 27.2527 124.3 27.2915 124.216 27.2961Z" fill="white"/>
<path d="M124.683 28.0515C124.595 28.0492 124.511 28.0131 124.45 27.9508C124.329 27.8263 124.329 27.6284 124.45 27.5039L127.84 24.3566C127.962 24.2366 128.158 24.2366 128.281 24.3566C128.34 24.4157 128.374 24.4961 128.374 24.58C128.374 24.6639 128.34 24.7444 128.281 24.8035L124.897 27.9508C124.84 28.0094 124.764 28.0452 124.683 28.0515Z" fill="white"/>
<path d="M125.218 28.9202C125.131 28.9223 125.048 28.8854 124.991 28.8195C124.932 28.7615 124.899 28.6821 124.899 28.5992C124.899 28.5163 124.932 28.4369 124.991 28.3789L128.382 25.2316C128.439 25.1708 128.519 25.1362 128.602 25.1362C128.686 25.1362 128.765 25.1708 128.823 25.2316C128.882 25.2896 128.915 25.369 128.915 25.4519C128.915 25.5348 128.882 25.6142 128.823 25.6722L125.433 28.8195C125.378 28.8814 125.301 28.9179 125.218 28.9202Z" fill="white"/>
<path d="M69.1373 77.4703L67.5557 112.355C67.5557 112.355 89.1374 112.613 101.551 107.433C102.568 104.107 103.797 100.851 105.231 97.6822C107.052 94.0062 114.872 88.5865 112.414 74.5119C112.414 74.5119 130.839 86.1568 136.031 80.8065C141.224 75.4561 143.82 50.4666 143.82 50.4666L133.032 47.0046L128.13 62.4137C128.13 62.4137 97.0392 47.3886 89.7928 45.4876C87.1021 44.7826 78.7404 49.2266 69.1562 55.3764" fill="#7C5DFA"/>
<path d="M89.1249 55.9491C89.1249 55.9491 94.1218 71.4589 94.9787 78.0242C95.8357 84.5894 95.9617 95.4412 95.9617 95.4412C95.9617 95.4412 103.87 71.2449 102.893 56.3016L89.1249 55.9491Z" fill="#231F20"/>
<path fill-rule="evenodd" clip-rule="evenodd" d="M95.9239 95.7245H95.9617C96.0855 95.7272 96.1961 95.6475 96.2327 95.5294C96.3083 95.309 104.141 71.1064 103.164 56.2827C103.157 56.1381 103.038 56.0245 102.893 56.0246L89.1312 55.6721C89.0416 55.6723 88.9573 55.7148 88.9039 55.7867C88.8505 55.8586 88.8343 55.9515 88.8602 56.0372C88.8605 56.0382 88.861 56.0397 88.8617 56.0419C88.9718 56.3851 93.8624 71.6375 94.7015 78.0682C95.5459 84.539 95.6845 95.3468 95.6845 95.4538C95.6863 95.5908 95.7881 95.7058 95.9239 95.7245ZM95.256 77.9864C94.4809 72.038 90.2717 58.6432 89.5093 56.2386L102.628 56.5848C103.359 69.067 97.9277 88.0577 96.2075 93.7228C96.1319 90.393 95.8861 82.9339 95.256 77.9864Z" fill="#231F20"/>
<path d="M63.9514 130.873H123.504L101.57 107.432L67.5746 112.355C67.5746 112.355 63.504 121.557 63.8884 128.016C63.9136 128.777 63.9325 129.753 63.9514 130.873Z" fill="#231F20"/>
<path fill-rule="evenodd" clip-rule="evenodd" d="M63.9514 131.188H123.504H123.511C123.636 131.189 123.751 131.115 123.801 131C123.852 130.885 123.829 130.751 123.744 130.659L101.809 107.218C101.738 107.143 101.635 107.105 101.532 107.118L67.5053 112.04C67.4006 112.058 67.3113 112.126 67.2659 112.223C67.0957 112.607 63.1701 121.57 63.5544 128.035C63.5985 128.809 63.6363 129.822 63.6363 130.88C63.6363 130.963 63.6697 131.042 63.729 131.1C63.7883 131.158 63.8684 131.19 63.9514 131.188ZM122.774 130.559H64.2728C64.2728 129.686 64.2356 128.856 64.2051 128.176C64.2024 128.115 64.1997 128.055 64.1972 127.997C63.8443 122.149 67.2533 113.897 67.7889 112.638L101.45 107.766L122.774 130.559Z" fill="#231F20"/>
<path d="M101.179 47.6088L102.887 56.3016C102.887 56.3016 102.931 61.3372 97.3479 60.8525C94.0073 60.5393 90.9862 58.7378 89.1248 55.9491L86.8626 40.7666C87.0573 38.0021 86.8321 35.2241 86.1947 32.527C92.6157 31.1988 96.7619 25.3889 96.7619 25.3889C96.7619 25.3889 99.6038 28.2844 100.763 29.1657C101.696 29.8041 102.543 30.5593 103.284 31.4128C104.5 32.9172 104.859 35.0196 105.174 36.8765C105.571 39.0805 105.767 41.3158 105.76 43.5551C105.659 47.8039 101.179 47.6088 101.179 47.6088Z" fill="white"/>
<path fill-rule="evenodd" clip-rule="evenodd" d="M97.3228 61.1736H98.0727C99.3505 61.2384 100.605 60.8154 101.582 59.9903C102.56 59.0051 103.112 57.6762 103.12 56.2891L101.475 47.9362C102.673 47.8968 103.821 47.453 104.733 46.6772C105.569 45.8672 106.027 44.7435 105.993 43.5803C106 41.3241 105.802 39.0718 105.401 36.8514C105.099 35.0323 104.714 32.8418 103.454 31.2555C102.714 30.3888 101.867 29.619 100.933 28.9643C100.084 28.328 98.2949 26.5481 97.4365 25.6941C97.1485 25.4076 96.9653 25.2253 96.9573 25.2253C96.8999 25.1618 96.8158 25.1291 96.7305 25.1372C96.6451 25.1442 96.567 25.1879 96.5163 25.2568C96.4785 25.3135 92.3637 31.0226 86.1318 32.2815C86.0566 32.2976 85.9909 32.3429 85.9491 32.4074C85.9056 32.4697 85.8917 32.548 85.9113 32.6215C86.5002 35.0636 86.7252 37.5791 86.5792 40.0868C86.554 40.3401 86.554 40.5952 86.5792 40.8485C86.5855 40.924 88.8413 56.031 88.8413 56.031C88.8483 56.0684 88.861 56.1045 88.8792 56.138C90.781 59.0115 93.8883 60.8646 97.3228 61.1736ZM97.3732 60.5694C94.1478 60.2515 91.229 58.5228 89.4022 55.8484C87.1652 40.8736 87.1904 40.7163 87.1904 40.7163C87.1735 40.5068 87.1735 40.2963 87.1904 40.0868C87.3359 37.6249 87.1236 35.1548 86.5603 32.7536C92.1369 31.4947 95.9113 26.9941 96.8124 25.8296C97.4993 26.5472 99.6102 28.6496 100.593 29.386C101.495 30.0137 102.314 30.7517 103.032 31.5828C104.193 32.9993 104.53 34.9783 104.831 36.7445C104.841 36.7992 104.85 36.8538 104.859 36.9081C105.255 39.0952 105.451 41.3137 105.445 43.5362C105.479 44.5367 105.099 45.507 104.393 46.2177C103.49 46.9515 102.356 47.3418 101.192 47.3193C101.102 47.3121 101.015 47.3499 100.959 47.42C100.904 47.4894 100.881 47.5785 100.896 47.6655L102.597 56.3016C102.567 57.511 102.081 58.6643 101.236 59.5308C100.335 60.3616 99.0368 60.7078 97.3732 60.5694Z" fill="#231F20"/>
<path d="M101.942 51.8891C101.942 51.8891 98.4381 52.7137 95.7159 50.7938C92.9938 48.874 92.8804 46.438 92.8804 46.438C92.8804 46.438 97.1904 48.2697 101.179 47.6088L101.942 51.8891Z" fill="#231F20"/>
<path fill-rule="evenodd" clip-rule="evenodd" d="M95.5584 51.0206C96.9022 51.9198 98.4908 52.3835 100.108 52.3487C100.754 52.3577 101.398 52.2944 102.03 52.1599C102.176 52.1283 102.271 51.9861 102.244 51.8389L101.475 47.5585C101.45 47.4099 101.309 47.3092 101.16 47.3319C97.6194 47.9214 93.7492 46.4573 93.1054 46.2137C93.048 46.192 93.0163 46.18 93.0127 46.18C92.9252 46.1421 92.8241 46.1542 92.748 46.2115C92.6666 46.2628 92.6205 46.3549 92.6283 46.4507C92.6283 46.5892 92.7543 49.0441 95.5584 51.0206ZM95.8986 50.5673C94.5917 49.704 93.6511 48.3877 93.2584 46.8724C94.4304 47.3131 97.7323 48.3705 100.977 47.9236L101.645 51.6689C100.807 51.8263 98.0726 52.1032 95.8986 50.5673Z" fill="#231F20"/>
<path d="M96.5288 32.7852C96.5288 32.7852 100.127 36.436 99.5975 37.2858C99.0682 38.1355 97.1148 38.0159 97.1148 38.0159" fill="white"/>
<path d="M97.4172 38.2991H97.0959C97.0223 38.2943 96.9536 38.2604 96.9052 38.2048C96.8567 38.1493 96.8323 38.0768 96.8375 38.0033C96.8476 37.8493 96.9793 37.7317 97.1337 37.7389C97.6315 37.7389 99.024 37.7389 99.3643 37.1472C99.5786 36.7947 98.1671 34.8497 96.3334 32.9865C96.2255 32.877 96.2269 32.7009 96.3366 32.5931C96.4462 32.4853 96.6225 32.4867 96.7304 32.5962C97.8583 33.7419 100.417 36.5052 99.8369 37.4431C99.358 38.2047 98.0411 38.2991 97.4172 38.2991Z" fill="#231F20"/>
<ellipse cx="101.299" cy="33.8749" rx="0.5" ry="0.919057" transform="rotate(-13.01 101.299 33.8749)" fill="#231F20"/>
<ellipse cx="93.271" cy="34.6899" rx="0.5" ry="0.919057" transform="rotate(-13.01 93.271 34.6899)" fill="#231F20"/>
<path d="M88.9232 35.7562C88.0473 34.3399 85.9994 34.1448 84.569 34.7176C83.5983 35.0645 82.9369 35.967 82.8992 36.9962C82.8882 37.6141 82.9995 38.2281 83.2268 38.8028C83.6074 39.8803 84.1795 40.8804 84.9156 41.7549C85.2586 42.2124 85.7115 42.5762 86.2325 42.8124C86.9039 43.0493 87.652 42.855 88.1229 42.3215" fill="white"/>
<path d="M86.8248 43.2152C86.5875 43.215 86.3524 43.1702 86.1317 43.083C85.5664 42.8268 85.073 42.4355 84.695 41.9437C83.9388 41.0418 83.3498 40.0122 82.9559 38.9034C82.7154 38.2902 82.5976 37.6358 82.6093 36.9773C82.659 35.8405 83.3906 34.8462 84.4619 34.4595C86.0372 33.83 88.2426 34.0818 89.1689 35.6114C89.2348 35.7453 89.188 35.9074 89.0607 35.9857C88.9334 36.0639 88.7674 36.0327 88.6774 35.9135C87.8898 34.6546 86.0309 34.4469 84.6761 34.9882C83.8114 35.2944 83.2185 36.0933 83.1764 37.0088C83.1679 37.5899 83.2728 38.1672 83.4852 38.7083C83.8552 39.7533 84.4101 40.7234 85.1235 41.5723C85.4379 41.9903 85.8515 42.3234 86.327 42.5417C86.8967 42.7417 87.5308 42.5746 87.9276 42.12C87.9955 42.0302 88.1093 41.9879 88.2194 42.0114C88.3295 42.0349 88.416 42.12 88.4413 42.2296C88.4665 42.3393 88.4259 42.4536 88.3371 42.5228C87.9457 42.9459 87.4012 43.1952 86.8248 43.2152Z" fill="#231F20"/>
<path d="M100.057 39.1489L95.8419 39.5581C95.8419 39.5581 96.7178 46.0667 98.6145 45.8904C100.511 45.7142 100.517 41.0121 100.057 39.1489Z" fill="white"/>
<path fill-rule="evenodd" clip-rule="evenodd" d="M95.5647 39.5958C95.7097 40.71 96.5477 46.1737 98.5326 46.1737L98.6398 46.1674C99.101 46.1137 99.5133 45.8545 99.7614 45.4624C100.807 43.9958 100.688 40.5274 100.328 39.0797C100.295 38.9468 100.169 38.8584 100.032 38.872L95.8105 39.2811C95.7345 39.2864 95.6651 39.3258 95.6215 39.3881C95.5715 39.4449 95.5506 39.5216 95.5647 39.5958ZM98.5326 45.6135C97.4173 45.6135 96.5099 42.1892 96.1571 39.8099L99.8433 39.4762C100.171 41.0625 100.133 43.9769 99.3077 45.1414C99.1508 45.398 98.8873 45.5711 98.5893 45.6135H98.5326Z" fill="#231F20"/>
<path d="M110.606 89.6188C110.503 89.6187 110.408 89.5625 110.358 89.4722C110.308 89.3819 110.311 89.2717 110.366 89.1845C110.41 89.1027 115.042 81.3226 110.612 65.1204C110.575 64.9681 110.664 64.8135 110.814 64.7679C110.887 64.7467 110.966 64.7562 111.033 64.7942C111.099 64.8321 111.147 64.8953 111.167 64.9693C115.672 81.4359 111.053 89.1656 110.852 89.5181C110.792 89.5913 110.7 89.6292 110.606 89.6188Z" fill="#231F20"/>
<path d="M24.9088 67.103L92.937 116.131L160.965 67.103V147.535H24.9088V67.103Z" fill="white"/>
<path fill-rule="evenodd" clip-rule="evenodd" d="M24.5938 147.535C24.5938 147.709 24.7349 147.85 24.9089 147.85H160.965C161.138 147.847 161.277 147.708 161.28 147.535V67.1031C161.28 66.9846 161.211 66.877 161.104 66.8262C161.004 66.7635 160.877 66.7635 160.776 66.8262L92.9371 115.716L25.0916 66.8262C24.9914 66.7635 24.8641 66.7635 24.7639 66.8262C24.6581 66.8776 24.5918 66.9856 24.5938 67.1031V147.535ZM160.682 147.22H25.205V67.72L92.7481 116.383C92.8588 116.464 93.0091 116.464 93.1198 116.383L160.682 67.72V147.22Z" fill="#231F20"/>
<path d="M24.9088 147.85C24.7934 147.85 24.687 147.787 24.6316 147.686C24.5502 147.535 24.603 147.346 24.7513 147.258L86.995 111.688C87.1464 111.603 87.338 111.656 87.4235 111.807C87.4665 111.879 87.4788 111.964 87.4574 112.045C87.436 112.126 87.3829 112.194 87.31 112.235L25.06 147.806C25.0141 147.833 24.9621 147.848 24.9088 147.85Z" fill="#231F20"/>
<path d="M160.965 147.85C160.91 147.848 160.856 147.833 160.808 147.806L98.5641 112.235C98.413 112.15 98.3594 111.958 98.4444 111.807C98.5321 111.659 98.7211 111.606 98.8729 111.688L161.117 147.258C161.268 147.344 161.321 147.535 161.236 147.686C161.183 147.786 161.079 147.849 160.965 147.85Z" fill="#231F20"/>
<path d="M57.3413 110.643C57.3413 110.643 60.095 117.806 60.744 118.196C61.393 118.586 69.0616 121.721 68.5134 123.188C67.9652 124.654 64.5121 122.867 64.5121 122.867C64.5121 122.867 69.4838 128.614 68.1732 129.627C66.8625 130.641 62.4516 132.699 60.681 131.862C58.9103 131.025 50.0823 120.097 48.2108 115.351" fill="white"/>
<path d="M61.7522 132.39C61.3414 132.403 60.9328 132.325 60.555 132.164C58.6646 131.264 49.7799 120.204 47.921 115.483C47.8805 115.377 47.8995 115.258 47.9709 115.17C48.0422 115.082 48.1551 115.039 48.267 115.057C48.3789 115.075 48.4728 115.151 48.5133 115.257C50.4037 120.097 59.2885 130.867 60.8197 131.622C62.3509 132.378 66.6546 130.464 67.9905 129.426C68.0485 129.372 68.0826 129.297 68.085 129.218C68.2047 127.959 65.3755 124.39 64.3042 123.118C64.2053 123.004 64.2017 122.836 64.2957 122.717C64.3896 122.599 64.5546 122.564 64.6886 122.634C65.3187 122.961 67.1209 123.742 67.9275 123.433C68.0771 123.383 68.1955 123.267 68.2488 123.118C68.4001 122.709 67.4045 121.683 61.79 119.084C61.1095 118.769 60.7503 118.599 60.6054 118.505C59.9249 118.07 57.732 112.481 57.0767 110.781C57.0461 110.703 57.0481 110.615 57.0825 110.538C57.1168 110.462 57.1805 110.402 57.2594 110.372C57.4212 110.312 57.601 110.394 57.6627 110.555C58.9734 113.96 60.5613 117.667 60.952 117.982C61.0591 118.051 61.5191 118.265 62.0547 118.511C66.579 120.601 69.2885 122.143 68.8411 123.339C68.7237 123.657 68.4727 123.908 68.1543 124.025C67.3047 124.198 66.4219 124.097 65.6338 123.735C66.8499 125.252 68.86 127.978 68.734 129.275C68.7134 129.521 68.5927 129.749 68.4001 129.904C67.3603 130.691 64.0081 132.39 61.7522 132.39Z" fill="#231F20"/>
<path d="M69.1562 55.4015C52.9494 65.8001 33.2391 81.1022 31.5755 84.6776C28.9164 90.3427 48.8032 118.832 48.8032 118.832L59.572 112.009L49.7294 90.6511L69.1373 77.464" fill="#7C5DFA"/>
<path d="M56.7112 86.2449C56.6164 86.2476 56.5265 86.2027 56.4718 86.1253C56.3834 85.9941 56.4139 85.8167 56.5411 85.7225L78.3308 70.4833C78.3929 70.4375 78.4711 70.419 78.5472 70.4321C78.6233 70.4451 78.6908 70.4887 78.7341 70.5526C78.7776 70.616 78.7941 70.6941 78.7799 70.7697C78.7657 70.8452 78.722 70.9121 78.6584 70.9554L56.875 86.1946C56.8275 86.2291 56.7699 86.2468 56.7112 86.2449Z" fill="#231F20"/>
<path d="M151.387 129.432L177.796 113.286L155.42 122.596L151.387 129.432Z" fill="#231F20"/>
<path fill-rule="evenodd" clip-rule="evenodd" d="M151.167 129.652C151.225 129.712 151.304 129.746 151.387 129.747C151.447 129.737 151.503 129.713 151.551 129.677L177.979 113.557C178.12 113.472 178.172 113.292 178.097 113.145C178.023 112.998 177.847 112.933 177.695 112.997L155.294 122.306C155.232 122.333 155.181 122.379 155.149 122.439L151.116 129.268C151.043 129.393 151.064 129.551 151.167 129.652ZM152.301 128.488L155.634 122.823L174.16 115.124L152.301 128.488Z" fill="#231F20"/>
<path d="M155.42 122.596L164.053 127.009L177.796 113.286L155.42 122.596Z" fill="white"/>
<path fill-rule="evenodd" clip-rule="evenodd" d="M163.921 127.26C163.961 127.282 164.007 127.293 164.053 127.292C164.131 127.297 164.207 127.267 164.261 127.21L178.004 113.488C178.103 113.394 178.12 113.242 178.042 113.129C177.966 113.017 177.821 112.972 177.695 113.022L155.307 122.332C155.205 122.378 155.137 122.478 155.13 122.59C155.125 122.702 155.187 122.806 155.288 122.854L163.921 127.26ZM163.996 126.656L156.101 122.628L176.561 114.111L163.996 126.656Z" fill="#231F20"/>
<path d="M177.796 113.286L149.365 120.072L142.9 116.377L177.796 113.286Z" fill="white"/>
<path fill-rule="evenodd" clip-rule="evenodd" d="M149.201 120.317C149.243 120.342 149.291 120.355 149.339 120.355L149.409 120.349L177.84 113.57C177.986 113.532 178.079 113.39 178.054 113.242C178.029 113.095 177.895 112.991 177.745 113.003L142.849 116.094C142.726 116.107 142.625 116.197 142.598 116.318C142.571 116.439 142.624 116.564 142.729 116.629L149.201 120.317ZM149.384 119.757L143.813 116.578L173.914 113.941L149.384 119.757Z" fill="#231F20"/>
<path d="M149.365 120.072L151.387 129.432L155.42 122.596L177.796 113.286L149.365 120.072Z" fill="white"/>
<path fill-rule="evenodd" clip-rule="evenodd" d="M151.343 129.722H151.388C151.498 129.731 151.604 129.674 151.658 129.577L155.641 122.829L177.909 113.557C178.059 113.508 178.141 113.348 178.092 113.198C178.043 113.049 177.883 112.967 177.733 113.016L149.302 119.795C149.228 119.812 149.164 119.857 149.124 119.92C149.084 119.984 149.071 120.061 149.088 120.135L151.104 129.501C151.131 129.617 151.226 129.704 151.343 129.722ZM151.514 128.645L149.705 120.28L174.374 114.394L155.307 122.325C155.25 122.351 155.202 122.393 155.168 122.445L151.514 128.645Z" fill="#231F20"/>
<path d="M145.559 130.735C145.42 130.732 145.3 130.639 145.263 130.506C145.225 130.373 145.279 130.231 145.395 130.156L146.447 129.482C146.593 129.387 146.79 129.428 146.885 129.574C146.981 129.72 146.94 129.915 146.794 130.011L145.729 130.691C145.677 130.72 145.618 130.735 145.559 130.735Z" fill="#D1D3D4"/>
<path fill-rule="evenodd" clip-rule="evenodd" d="M18.2058 111.822C18.256 111.939 18.3731 112.013 18.5005 112.009C18.5973 112.011 18.6899 111.969 18.7526 111.895C19.3197 111.291 19.9057 110.706 20.5358 110.152C20.5955 110.093 20.629 110.012 20.629 109.928C20.629 109.844 20.5955 109.764 20.5358 109.705C20.4778 109.646 20.3983 109.612 20.3153 109.612C20.2323 109.612 20.1528 109.646 20.0947 109.705C19.4646 110.271 18.8534 110.85 18.2737 111.48C18.1825 111.569 18.1556 111.705 18.2058 111.822ZM15.3499 115.911C15.2666 115.914 15.1855 115.884 15.1231 115.829C15.0546 115.782 15.0081 115.71 14.9938 115.628C14.9796 115.546 14.9989 115.462 15.0474 115.395C15.5263 114.703 16.043 114.017 16.5723 113.362C16.6824 113.229 16.8792 113.209 17.0134 113.318C17.1486 113.426 17.1711 113.623 17.0638 113.758C16.5408 114.388 16.0367 115.074 15.5642 115.754C15.5148 115.839 15.4288 115.897 15.331 115.911H15.3499ZM12.6026 120.236C12.6612 120.257 12.7253 120.26 12.7853 120.242L12.7664 120.236C12.8698 120.234 12.966 120.182 13.0247 120.097C13.3902 119.354 13.7872 118.618 14.2157 117.907C14.3023 117.755 14.2519 117.562 14.1023 117.472C14.0307 117.429 13.9448 117.417 13.864 117.438C13.7833 117.46 13.7147 117.513 13.6738 117.586C13.239 118.316 12.8294 119.065 12.4576 119.814C12.4207 119.889 12.4152 119.976 12.4424 120.055C12.4696 120.134 12.5273 120.199 12.6026 120.236ZM10.8949 124.9C10.8637 124.906 10.8316 124.906 10.8004 124.9C10.7199 124.875 10.6526 124.819 10.6135 124.745C10.5745 124.67 10.5669 124.583 10.5925 124.503C10.8382 123.71 11.1281 122.904 11.4494 122.111C11.5255 121.968 11.698 121.906 11.848 121.968C11.998 122.03 12.0764 122.195 12.0292 122.351C11.7204 123.125 11.4368 123.912 11.1911 124.692C11.1493 124.819 11.0288 124.904 10.8949 124.9ZM9.7544 129.803H9.79851C9.9607 129.801 10.0943 129.675 10.1073 129.514C10.2144 128.702 10.3656 127.877 10.5484 127.065C10.5671 126.983 10.5524 126.897 10.5074 126.827C10.4625 126.756 10.391 126.706 10.3089 126.688C10.1389 126.652 9.97145 126.758 9.93084 126.927C9.7418 127.776 9.59687 128.62 9.48345 129.445C9.46092 129.618 9.58136 129.777 9.7544 129.803ZM141.211 133.309C141.07 133.308 140.947 133.213 140.91 133.076C140.873 132.94 140.932 132.796 141.053 132.724C141.866 132.258 142.597 131.836 143.227 131.465C143.299 131.421 143.385 131.408 143.467 131.428C143.549 131.448 143.619 131.5 143.662 131.572C143.75 131.722 143.702 131.914 143.555 132.006C142.925 132.384 142.188 132.812 141.368 133.265C141.326 133.29 141.279 133.305 141.23 133.309H141.211ZM9.26291 134.524C9.27292 134.691 9.41109 134.82 9.57797 134.82H9.59687C9.68049 134.815 9.75872 134.777 9.81429 134.715C9.86986 134.652 9.8982 134.57 9.89303 134.486C9.85522 134.008 9.85522 133.517 9.85522 133.032V132.006C9.85863 131.923 9.82867 131.842 9.77193 131.78C9.71519 131.719 9.63635 131.682 9.55276 131.679C9.46873 131.674 9.38624 131.703 9.32438 131.76C9.26252 131.817 9.22666 131.897 9.2251 131.981V133.032C9.2251 133.282 9.23461 133.533 9.24409 133.783C9.25351 134.032 9.26291 134.28 9.26291 134.524ZM136.8 135.745C136.684 135.747 136.577 135.684 136.523 135.582C136.443 135.428 136.498 135.239 136.649 135.154C137.359 134.776 138.033 134.409 138.671 134.061L138.861 133.958C138.959 133.888 139.09 133.88 139.195 133.939C139.301 133.998 139.364 134.112 139.357 134.232C139.351 134.353 139.275 134.459 139.163 134.505C138.47 134.889 137.733 135.292 136.945 135.714C136.906 135.734 136.863 135.745 136.819 135.745H136.8ZM132.043 137.892C132.094 138.001 132.205 138.07 132.326 138.068C132.375 138.067 132.423 138.054 132.465 138.03C133.246 137.64 133.996 137.256 134.714 136.885C134.869 136.805 134.93 136.615 134.85 136.46C134.77 136.305 134.579 136.245 134.425 136.325C133.706 136.702 132.956 137.08 132.181 137.47C132.027 137.549 131.965 137.737 132.043 137.892ZM10.4223 139.749C10.2805 139.748 10.1567 139.653 10.1199 139.516C9.88914 138.698 9.70402 137.868 9.56536 137.03C9.53752 136.856 9.65601 136.692 9.83002 136.664C10.004 136.637 10.1676 136.755 10.1955 136.929C10.3214 137.752 10.4939 138.567 10.7122 139.371C10.7356 139.451 10.7262 139.537 10.686 139.611C10.6458 139.684 10.5782 139.738 10.4979 139.761L10.4223 139.749ZM127.531 140.095C127.582 140.205 127.693 140.275 127.815 140.271C127.86 140.272 127.905 140.263 127.947 140.246L130.222 139.151C130.378 139.074 130.443 138.885 130.367 138.729C130.29 138.573 130.101 138.508 129.944 138.584C129.213 138.943 128.457 139.308 127.676 139.673C127.601 139.71 127.543 139.775 127.516 139.854C127.489 139.933 127.494 140.02 127.531 140.095ZM123.234 142.374C123.11 142.372 122.998 142.302 122.944 142.191C122.908 142.115 122.906 142.027 122.937 141.948C122.967 141.87 123.029 141.807 123.107 141.776L123.38 141.653L123.612 141.549C124.218 141.276 124.812 141.008 125.395 140.737C125.553 140.664 125.741 140.733 125.814 140.891C125.887 141.049 125.818 141.237 125.66 141.31C124.91 141.656 124.147 142.002 123.36 142.348C123.32 142.366 123.277 142.375 123.234 142.374ZM12.3253 144.413C12.2095 144.415 12.1024 144.352 12.0481 144.249C11.6363 143.505 11.2681 142.738 10.9453 141.952C10.9026 141.847 10.9189 141.728 10.9882 141.639C11.0574 141.549 11.1691 141.504 11.2812 141.519C11.3932 141.534 11.4886 141.608 11.5314 141.713C11.841 142.479 12.1988 143.226 12.6026 143.947C12.6829 144.101 12.6272 144.29 12.4765 144.375C12.4298 144.4 12.378 144.413 12.3253 144.413ZM113.632 146.143C113.706 146.23 113.82 146.271 113.933 146.251V146.257C113.974 146.257 114.014 146.251 114.053 146.238L116.397 145.282C116.557 145.212 116.633 145.028 116.567 144.866C116.5 144.707 116.317 144.631 116.157 144.696L113.819 145.622C113.707 145.642 113.614 145.721 113.575 145.828C113.536 145.936 113.558 146.055 113.632 146.143ZM14.997 148.391C15.0585 148.459 15.1452 148.497 15.2365 148.498V148.505C15.323 148.508 15.4073 148.477 15.4696 148.416C15.5905 148.292 15.5905 148.094 15.4696 147.969C14.9161 147.356 14.3986 146.71 13.9195 146.037C13.8588 145.935 13.7456 145.875 13.6267 145.883C13.5079 145.892 13.4039 145.966 13.3579 146.076C13.3118 146.185 13.3317 146.312 13.4091 146.402C13.9007 147.094 14.4309 147.758 14.997 148.391ZM104.468 149.694C104.294 149.722 104.131 149.604 104.103 149.43C104.075 149.256 104.194 149.093 104.368 149.065C105.168 148.794 105.962 148.523 106.743 148.246C106.908 148.192 107.087 148.278 107.146 148.442C107.175 148.519 107.17 148.605 107.135 148.679C107.099 148.754 107.035 148.811 106.957 148.838C106.17 149.115 105.376 149.392 104.569 149.663L104.468 149.694ZM18.9479 151.878C18.8797 151.879 18.8132 151.857 18.7589 151.815C18.072 151.306 17.4104 150.764 16.7929 150.204C16.7332 150.145 16.6997 150.065 16.6997 149.981C16.6997 149.897 16.7332 149.816 16.7929 149.757C16.851 149.698 16.9305 149.665 17.0134 149.665C17.0964 149.665 17.1759 149.698 17.234 149.757C17.8479 150.313 18.4894 150.839 19.1559 151.331C19.2951 151.435 19.3233 151.632 19.2189 151.771C19.1509 151.848 19.0502 151.888 18.9479 151.878ZM94.5566 152.464C94.593 152.596 94.7126 152.688 94.8494 152.69H94.8464C94.8805 152.694 94.9151 152.69 94.9472 152.678C95.7601 152.451 96.5667 152.212 97.3669 151.973C97.4481 151.951 97.5169 151.897 97.5573 151.823C97.5978 151.75 97.6064 151.663 97.5812 151.583C97.5297 151.418 97.3557 151.326 97.1905 151.375L94.7771 152.074C94.6098 152.122 94.512 152.295 94.5566 152.464ZM23.0563 154.484C23.1012 154.508 23.1507 154.521 23.2013 154.522V154.535C23.3753 154.575 23.5488 154.466 23.5888 154.292C23.6288 154.119 23.5202 153.945 23.3462 153.905C22.5963 153.521 21.8654 153.112 21.1786 152.69C21.1081 152.644 21.0217 152.629 20.9396 152.648C20.8575 152.667 20.7868 152.719 20.7438 152.791C20.6993 152.862 20.685 152.948 20.7039 153.029C20.7228 153.111 20.7735 153.181 20.8446 153.225C21.5503 153.672 22.2939 154.094 23.0563 154.484ZM85.0732 155.196C84.9606 155.208 84.85 155.159 84.783 155.068C84.716 154.977 84.7028 154.857 84.7483 154.754C84.7939 154.65 84.8913 154.579 85.0039 154.566C85.823 154.377 86.6359 154.189 87.4487 153.987C87.6174 153.948 87.7863 154.052 87.8268 154.22C87.8477 154.302 87.8347 154.389 87.7909 154.461C87.747 154.533 87.676 154.585 87.5937 154.604L87.5931 154.604L87.5925 154.604L87.5919 154.604L87.5913 154.605L87.5907 154.605L87.5901 154.605L87.5895 154.605L87.5889 154.605L87.5883 154.605L87.5877 154.605L87.5871 154.605L87.5865 154.606L87.5859 154.606L87.5853 154.606L87.5847 154.606L87.5842 154.606L87.5836 154.606L87.583 154.606L87.5824 154.607L87.5818 154.607L87.5812 154.607L87.5806 154.607L87.58 154.607L87.5794 154.607C86.7713 154.801 85.9632 154.995 85.1425 155.177L85.0732 155.196ZM27.8453 156.492C27.8119 156.498 27.7778 156.498 27.7445 156.492C26.9379 156.209 26.1376 155.901 25.3752 155.58C25.2981 155.546 25.2375 155.484 25.2067 155.406C25.176 155.328 25.1777 155.241 25.2114 155.164C25.2805 155.007 25.4626 154.935 25.6209 155.001C26.3708 155.315 27.1584 155.63 27.9524 155.901C28.1264 155.93 28.2435 156.095 28.2139 156.269C28.1843 156.443 28.0193 156.56 27.8453 156.53V156.492ZM74.9156 156.92C74.9405 157.071 75.0717 157.18 75.2243 157.178H75.281L77.7637 156.732C77.9339 156.7 78.0464 156.537 78.0158 156.366C78.0021 156.284 77.9554 156.211 77.8865 156.163C77.8176 156.116 77.7324 156.098 77.6503 156.115L75.1739 156.555C75.0032 156.587 74.8888 156.749 74.9156 156.92ZM32.6909 157.902H32.6153C31.7773 157.707 30.9518 157.493 30.1641 157.273C29.9994 157.221 29.9048 157.049 29.9499 156.883C29.9986 156.716 30.1735 156.62 30.3406 156.669C31.1219 156.889 31.9348 157.103 32.7602 157.298C32.8421 157.316 32.9131 157.366 32.9571 157.437C33.001 157.509 33.0141 157.595 32.9934 157.676C32.9506 157.812 32.8212 157.903 32.6783 157.896L32.6909 157.902ZM69.9376 157.695C69.9622 157.85 70.0955 157.964 70.2527 157.965L70.2716 157.959L72.7921 157.588C72.875 157.574 72.9489 157.527 72.9974 157.459C73.0459 157.39 73.065 157.305 73.0504 157.222C73.0381 157.14 72.993 157.066 72.9253 157.018C72.8577 156.969 72.7733 156.95 72.6912 156.964L70.2085 157.336C70.1246 157.347 70.0486 157.391 69.9977 157.458C69.9467 157.526 69.925 157.611 69.9376 157.695ZM65.2558 158.595C65.1432 158.601 65.0356 158.548 64.9735 158.454C64.9113 158.36 64.9041 158.24 64.9546 158.139C65.005 158.038 65.1054 157.972 65.218 157.965C66.0581 157.873 66.8983 157.772 67.7385 157.663C67.9125 157.641 68.0719 157.763 68.0945 157.937C68.1171 158.111 67.9944 158.27 67.8204 158.293L65.2999 158.588L65.2558 158.595ZM37.587 158.821H37.6185C37.7729 158.814 37.8999 158.697 37.921 158.544C37.9336 158.462 37.9128 158.377 37.8632 158.31C37.8135 158.243 37.7391 158.198 37.6563 158.186C36.8182 158.066 35.9865 157.927 35.1862 157.776C35.0737 157.755 34.9582 157.795 34.8834 157.882C34.8086 157.969 34.7858 158.089 34.8236 158.197C34.8613 158.305 34.9539 158.385 35.0665 158.406C35.9046 158.557 36.7426 158.695 37.587 158.821ZM60.24 159.079C60.066 159.079 59.9249 158.938 59.9249 158.765C59.9249 158.591 60.066 158.45 60.24 158.45C61.078 158.381 61.9098 158.305 62.7605 158.223C62.9326 158.212 63.0842 158.336 63.107 158.507C63.1158 158.59 63.0908 158.674 63.0376 158.739C62.9843 158.804 62.9072 158.845 62.8235 158.853C61.9833 158.933 61.1432 159.008 60.303 159.079H60.24ZM40.1201 159.136C40.9456 159.224 41.7836 159.3 42.6406 159.363H42.7099C42.8839 159.363 43.025 159.222 43.025 159.048C43.025 158.874 42.8839 158.733 42.7099 158.733C41.834 158.67 41.0023 158.595 40.1894 158.513C40.1061 158.5 40.0214 158.523 39.9556 158.576C39.8898 158.628 39.8489 158.706 39.8428 158.79C39.8244 158.962 39.9482 159.116 40.1201 159.136ZM55.2116 159.407C55.0459 159.407 54.9096 159.276 54.9028 159.111C54.8977 159.027 54.926 158.945 54.9816 158.883C55.0371 158.82 55.1154 158.782 55.199 158.777C56.037 158.739 56.8751 158.689 57.7195 158.632C57.8035 158.626 57.8867 158.653 57.9498 158.709C58.0128 158.765 58.0503 158.844 58.0534 158.928C58.0604 159.011 58.0335 159.093 57.9789 159.156C57.9244 159.219 57.8467 159.257 57.7636 159.262C56.9255 159.319 56.0875 159.369 55.2431 159.407H55.2116ZM45.4298 159.519H45.4299H45.43H45.4301H45.4302H45.4303H45.4304H45.4305H45.4306H45.4307H45.4308H45.4309H45.431H45.4311H45.4312H45.4314H45.4315H45.4316H45.4317L45.4319 159.519C46.1559 159.548 46.8982 159.577 47.6501 159.577H47.6564C47.7427 159.58 47.8267 159.549 47.8896 159.489C47.9524 159.43 47.9887 159.348 47.9904 159.262C47.9904 159.178 47.9572 159.098 47.8981 159.039C47.839 158.98 47.7589 158.947 47.6753 158.947C46.812 158.935 45.974 158.909 45.1548 158.878C45.0712 158.875 44.9897 158.904 44.9283 158.961C44.8668 159.018 44.8304 159.097 44.8271 159.18C44.8234 159.353 44.9571 159.497 45.1296 159.507L45.4298 159.519ZM49.8555 159.262C49.8589 159.434 49.998 159.573 50.1706 159.577H50.1769L51.6829 159.545L52.6974 159.514C52.7821 159.512 52.8625 159.476 52.9206 159.415C52.9787 159.353 53.0096 159.271 53.0061 159.186C52.993 159.016 52.85 158.884 52.6785 158.884L51.664 158.916L50.1643 158.947C49.9927 158.951 49.8555 159.091 49.8555 159.262ZM79.8368 156.001C79.8689 156.147 79.9967 156.251 80.1456 156.253L80.2086 156.247L82.6787 155.731C82.7603 155.714 82.8317 155.665 82.8768 155.595C82.9219 155.526 82.9368 155.44 82.9182 155.359C82.9015 155.277 82.8529 155.206 82.7832 155.16C82.7134 155.114 82.6283 155.097 82.5464 155.114L80.0826 155.63C80.0007 155.647 79.9288 155.695 79.8827 155.765C79.8366 155.834 79.8201 155.92 79.8368 156.001ZM89.6416 153.729C89.6621 153.9 89.815 154.022 89.9853 154.007C90.0152 154.015 90.0466 154.015 90.0764 154.006C90.8955 153.805 91.7084 153.595 92.5149 153.377C92.6275 153.347 92.7159 153.26 92.7468 153.148C92.7778 153.036 92.7466 152.916 92.6649 152.834C92.5833 152.751 92.4637 152.718 92.3511 152.747L89.9188 153.377C89.7448 153.397 89.6207 153.555 89.6416 153.729ZM99.377 151.029C99.4142 151.161 99.5358 151.251 99.6732 151.249V151.255C99.7056 151.255 99.7377 151.249 99.7677 151.236C100.581 150.985 101.381 150.733 102.175 150.475C102.34 150.421 102.43 150.243 102.376 150.078C102.352 149.998 102.296 149.931 102.221 149.893C102.146 149.855 102.059 149.849 101.979 149.877C101.761 149.946 101.543 150.016 101.324 150.085C100.748 150.269 100.17 150.454 99.5849 150.632C99.5044 150.657 99.4371 150.712 99.3981 150.787C99.359 150.861 99.3514 150.949 99.377 151.029ZM109.22 148.032C109.088 148.029 108.971 147.947 108.923 147.825C108.864 147.661 108.949 147.481 109.112 147.422C109.656 147.225 110.191 147.026 110.723 146.827L110.724 146.827L110.725 146.826L110.726 146.826C110.976 146.733 111.226 146.639 111.475 146.547C111.631 146.508 111.791 146.591 111.847 146.741C111.904 146.891 111.839 147.059 111.696 147.132C110.915 147.428 110.127 147.718 109.327 148.007C109.295 148.027 109.257 148.038 109.22 148.039V148.032ZM118.319 144.174C118.364 144.294 118.48 144.372 118.608 144.369C118.65 144.37 118.691 144.361 118.728 144.344L121.053 143.362C121.213 143.292 121.287 143.106 121.217 142.946C121.148 142.786 120.961 142.713 120.801 142.783C120.239 143.045 119.666 143.279 119.086 143.517C118.885 143.599 118.684 143.681 118.482 143.765C118.325 143.834 118.253 144.016 118.319 144.174Z" fill="#D1D3D4"/>
<path d="M22.2686 108.616C22.1726 108.616 22.0817 108.572 22.0229 108.496C21.9164 108.357 21.9417 108.158 22.0796 108.049C22.4199 107.798 22.7601 107.546 23.1067 107.3C23.1988 107.229 23.3227 107.214 23.4289 107.262C23.5351 107.31 23.6064 107.412 23.6141 107.528C23.6218 107.644 23.5648 107.755 23.4659 107.816C23.1256 108.056 22.7916 108.301 22.464 108.553C22.4077 108.595 22.339 108.617 22.2686 108.616Z" fill="#D1D3D4"/>
<path d="M163.58 71.0057C163.5 71.0082 163.422 70.9761 163.366 70.9176C163.307 70.8596 163.273 70.7802 163.273 70.6973C163.273 70.6144 163.307 70.535 163.366 70.477C163.366 70.477 163.675 70.1497 164.21 69.558C164.279 69.457 164.401 69.405 164.521 69.4246C164.642 69.4443 164.741 69.532 164.774 69.6496C164.807 69.7673 164.769 69.8935 164.677 69.9734C164.135 70.6029 163.82 70.9113 163.82 70.9113C163.758 70.9761 163.67 71.0106 163.58 71.0057Z" fill="#D1D3D4"/>
<path fill-rule="evenodd" clip-rule="evenodd" d="M164.242 13.7943H164.299V13.7754C164.445 13.7791 164.574 13.6791 164.607 13.5362C164.634 13.3648 164.52 13.2031 164.349 13.1711C163.502 13.0263 162.648 12.9296 161.791 12.8816C161.706 12.8707 161.62 12.8969 161.556 12.9536C161.492 13.0104 161.456 13.092 161.457 13.1774C161.452 13.2609 161.48 13.3431 161.536 13.4057C161.591 13.4683 161.669 13.5062 161.753 13.511C162.587 13.5566 163.419 13.6512 164.242 13.7943ZM169.151 15.2735C169.107 15.2822 169.062 15.2822 169.018 15.2735C168.259 14.9284 167.478 14.634 166.681 14.3923C166.568 14.3597 166.481 14.2695 166.453 14.1559C166.425 14.0422 166.46 13.9222 166.545 13.8411C166.629 13.7601 166.751 13.7302 166.863 13.7628C167.689 14.0101 168.498 14.3129 169.283 14.6692C169.359 14.7034 169.418 14.7668 169.446 14.8451C169.475 14.9233 169.47 15.0097 169.434 15.0847C169.381 15.1914 169.27 15.2576 169.151 15.2546V15.2735ZM173.183 17.9487C173.242 17.9963 173.316 18.0229 173.391 18.0242V18.0054C173.47 18.0053 173.547 17.9762 173.606 17.9235C173.726 17.799 173.726 17.6011 173.606 17.4766C172.959 16.9033 172.27 16.3794 171.545 15.9093C171.451 15.8412 171.326 15.8309 171.222 15.8824C171.117 15.9339 171.049 16.0388 171.046 16.1552C171.042 16.2715 171.104 16.3803 171.205 16.438C171.902 16.8908 172.563 17.3959 173.183 17.9487ZM176.63 21.908C176.521 21.9088 176.419 21.8543 176.359 21.7632C175.925 21.0542 175.44 20.3769 174.91 19.7364C174.801 19.6022 174.821 19.4057 174.954 19.2957C175.017 19.2412 175.099 19.2145 175.183 19.2216C175.266 19.2287 175.342 19.2691 175.395 19.3335C175.942 19.9906 176.443 20.6847 176.895 21.4107C176.941 21.4812 176.956 21.5674 176.937 21.6494C176.918 21.7314 176.867 21.8021 176.794 21.845C176.745 21.875 176.688 21.8903 176.63 21.8891V21.908ZM178.432 26.2953C178.476 26.4246 178.598 26.511 178.735 26.5093V26.4904C178.768 26.4983 178.802 26.5004 178.836 26.4967C178.998 26.4401 179.085 26.2635 179.031 26.1002C178.767 25.2842 178.458 24.4836 178.105 23.7019C178.057 23.5996 177.959 23.5303 177.847 23.52C177.734 23.5097 177.625 23.5601 177.56 23.6522C177.495 23.7443 177.484 23.864 177.531 23.9663C177.874 24.7255 178.175 25.503 178.432 26.2953ZM179.875 31.4443C179.718 31.4431 179.585 31.3286 179.56 31.1736C179.441 30.3301 179.283 29.4992 179.1 28.7061C179.062 28.5323 179.172 28.3604 179.346 28.3222C179.52 28.2839 179.692 28.3938 179.73 28.5677C179.913 29.3734 180.071 30.2231 180.197 31.0855C180.219 31.2567 180.103 31.4153 179.932 31.4443H179.875ZM179.97 36.1715C179.973 36.3429 180.113 36.48 180.285 36.4799H180.291C180.464 36.4732 180.6 36.3314 180.6 36.1589C180.581 35.2903 180.537 34.4342 180.474 33.6096C180.468 33.526 180.428 33.4485 180.364 33.3941C180.3 33.3398 180.217 33.3131 180.134 33.3201C180.051 33.3249 179.973 33.363 179.918 33.4258C179.864 33.4886 179.837 33.5708 179.844 33.6537C179.907 34.472 179.97 35.3154 179.97 36.1715ZM180.14 41.5534H180.108C179.937 41.5367 179.81 41.3852 179.825 41.2134C179.825 41.0627 179.841 40.9139 179.858 40.7649C179.87 40.6527 179.883 40.5402 179.888 40.4266C179.888 40.0703 179.909 39.7163 179.93 39.3675L179.93 39.3674L179.93 39.3673L179.93 39.3671L179.93 39.367L179.93 39.367C179.943 39.1429 179.956 38.921 179.964 38.7019C179.963 38.6179 179.998 38.5375 180.058 38.4792C180.119 38.421 180.201 38.3901 180.285 38.3935C180.457 38.4002 180.594 38.542 180.594 38.7145C180.594 39.1507 180.568 39.5905 180.542 40.0395L180.542 40.0396L180.542 40.04C180.534 40.1805 180.526 40.3219 180.518 40.4644C180.518 40.6656 180.497 40.8634 180.476 41.0629L180.476 41.0629C180.469 41.1317 180.461 41.2007 180.455 41.2701C180.436 41.4301 180.301 41.5513 180.14 41.5534ZM178.987 46.5135H179.081H179.107C179.229 46.5146 179.341 46.4463 179.396 46.3372C179.636 45.4623 179.85 44.6251 180.027 43.8194C180.058 43.6498 179.949 43.4858 179.781 43.448C179.612 43.4129 179.447 43.5194 179.409 43.6872C179.245 44.474 179.031 45.2923 178.779 46.1169C178.729 46.2835 178.821 46.4593 178.987 46.5135ZM177.248 51.247C177.204 51.256 177.159 51.256 177.115 51.247C177.039 51.2128 176.98 51.1494 176.952 51.0712C176.923 50.9929 176.928 50.9065 176.964 50.8316C177.323 50.0447 177.657 49.2642 177.947 48.5089C177.977 48.43 178.037 48.3664 178.114 48.3321C178.191 48.2978 178.278 48.2957 178.357 48.3263C178.519 48.3907 178.6 48.5722 178.539 48.7355C178.237 49.5034 177.909 50.2965 177.538 51.0896C177.481 51.1828 177.382 51.2418 177.273 51.247H177.248ZM174.752 55.7161C174.799 55.746 174.854 55.7613 174.91 55.7602H174.935C175.038 55.7511 175.13 55.6923 175.181 55.6028C175.616 54.8475 176.032 54.0984 176.41 53.362C176.49 53.2073 176.429 53.017 176.274 52.9371C176.119 52.8571 175.929 52.9177 175.849 53.0724C175.477 53.7963 175.067 54.5454 174.639 55.2881C174.596 55.3596 174.584 55.4455 174.605 55.5261C174.626 55.6068 174.68 55.6753 174.752 55.7161ZM172.213 60.0657C172.095 60.0694 171.985 60.0054 171.93 59.9009C171.875 59.7965 171.885 59.6698 171.955 59.5747C172.415 58.8886 172.881 58.1836 173.335 57.4534C173.429 57.3084 173.621 57.2639 173.769 57.3527C173.915 57.4468 173.958 57.641 173.864 57.7871C173.429 58.4858 172.963 59.2033 172.478 59.9272C172.423 60.0078 172.335 60.0589 172.238 60.0657H172.213ZM169.062 64.1383C169.118 64.1767 169.184 64.1985 169.251 64.2012L169.277 64.2138C169.369 64.2042 169.453 64.1533 169.503 64.0753C170.001 63.427 170.505 62.7409 171.022 62.0233C171.123 61.8808 171.089 61.6835 170.946 61.5827C170.804 61.4819 170.606 61.5157 170.505 61.6582C169.995 62.3695 169.491 63.0619 169.006 63.6914C168.899 63.8308 168.924 64.0298 169.062 64.1383ZM165.893 68.0913C165.951 68.1398 166.025 68.1665 166.101 68.1668C166.204 68.1771 166.306 68.1345 166.372 68.0535C166.863 67.4744 167.411 66.8135 167.991 66.0833C168.044 66.0187 168.069 65.9354 168.06 65.8523C168.05 65.7693 168.007 65.6936 167.941 65.6427C167.805 65.5356 167.608 65.5581 167.5 65.693C167.227 66.0211 166.964 66.345 166.71 66.6563C166.424 67.0079 166.15 67.3435 165.893 67.6507C165.834 67.7087 165.8 67.7881 165.8 67.871C165.8 67.9539 165.834 68.0333 165.893 68.0913Z" fill="#D1D3D4"/>
<path d="M157.953 13.6119C157.841 13.6209 157.732 13.5692 157.668 13.4763C157.604 13.3834 157.594 13.2635 157.643 13.1616C157.691 13.0597 157.79 12.9914 157.903 12.9824C158.32 12.9172 158.741 12.8752 159.163 12.8565C159.337 12.8461 159.487 12.9786 159.497 13.1524C159.508 13.3262 159.375 13.4756 159.201 13.486C158.439 13.5301 157.985 13.5993 157.985 13.5993L157.953 13.6119Z" fill="#D1D3D4"/>
<path d="M1.9011 42.0113C0.998802 40.9085 1.16221 39.2829 2.26594 38.3817L19.749 24.1075C20.8511 23.2077 22.4738 23.3708 23.3748 24.472L30.1068 32.6999C31.0091 33.8027 30.8457 35.4283 29.742 36.3295L12.2589 50.6037C11.1568 51.5035 9.53408 51.3404 8.6331 50.2392L1.9011 42.0113Z" fill="white"/>
<path fill-rule="evenodd" clip-rule="evenodd" d="M10.3025 51.8954H10.4979C10.9396 51.8962 11.3676 51.7426 11.7077 51.4611L30.706 35.9512C31.1038 35.6341 31.3569 35.1702 31.4079 34.6643C31.4589 34.1584 31.3035 33.6534 30.9769 33.2634L22.9995 23.5131C22.6821 23.1157 22.2177 22.8629 21.7113 22.812C21.2049 22.7611 20.6993 22.9163 20.3089 23.2425L1.31066 38.7586C0.912803 39.0757 0.659759 39.5396 0.608762 40.0455C0.557766 40.5514 0.713128 41.0564 1.0397 41.4464L9.04228 51.203C9.35463 51.5906 9.80753 51.8395 10.3025 51.8954ZM20.7059 23.7272C20.9374 23.5444 21.2237 23.4447 21.5187 23.4439C21.9077 23.4433 22.2751 23.6222 22.5143 23.9286L30.4917 33.66C30.7119 33.9207 30.8168 34.2595 30.7823 34.5988C30.7479 34.9382 30.5771 35.249 30.309 35.4603L11.3233 50.9764C11.0595 51.1898 10.7224 51.2915 10.3844 51.2596C10.0455 51.2272 9.73413 51.0592 9.52118 50.7938L1.5438 41.0498C1.33036 40.7837 1.22869 40.4452 1.26025 40.1056C1.2879 39.77 1.44903 39.4594 1.70763 39.2433L20.7059 23.7272Z" fill="#D1D3D4"/>
<path d="M0.945186 40.2946C0.771182 40.2946 0.630124 40.1537 0.630124 39.9799C0.621368 39.897 0.646567 39.8141 0.699983 39.7501C0.753399 39.686 0.830484 39.6463 0.91368 39.64L16.7487 38.2678L21.2478 23.0412C21.2697 22.9601 21.3237 22.8914 21.3975 22.851C21.4712 22.8106 21.5582 22.802 21.6385 22.8272C21.803 22.8785 21.8956 23.0524 21.8464 23.2174L17.2969 38.6517C17.2631 38.7765 17.1549 38.867 17.026 38.8783L0.976692 40.2946H0.945186Z" fill="#D1D3D4"/>
<path d="M17.6436 36.6185C17.4695 36.6185 17.3285 36.4776 17.3285 36.3038C17.3285 36.13 17.4695 35.9891 17.6436 35.9891L31.04 34.4595C31.211 34.4445 31.3637 34.5665 31.3866 34.7365C31.3972 34.82 31.3739 34.9044 31.3218 34.9707C31.2697 35.0369 31.1931 35.0795 31.1093 35.089L17.7003 36.6185H17.6436Z" fill="#D1D3D4"/>
<path d="M10.479 51.8955C10.4478 51.9014 10.4157 51.9014 10.3845 51.8955C10.3041 51.871 10.2372 51.8149 10.1991 51.7401C10.1611 51.6653 10.1552 51.5782 10.1828 51.4989L14.348 38.6895C14.3829 38.577 14.4752 38.4917 14.5901 38.4657C14.705 38.4397 14.8251 38.4768 14.9051 38.5633C14.9852 38.6497 15.013 38.7722 14.9781 38.8846L10.813 51.6941C10.7598 51.8287 10.6231 51.9112 10.479 51.8955Z" fill="#D1D3D4"/>
<path d="M171.756 85.0836C172.211 84.0351 173.43 83.5537 174.478 84.0079L191.138 91.2234C192.188 91.6781 192.67 92.8983 192.215 93.9479L188.81 101.792C188.355 102.84 187.137 103.322 186.088 102.867L169.428 95.6519C168.378 95.1971 167.896 93.977 168.352 92.9274L171.756 85.0836Z" fill="white"/>
<path fill-rule="evenodd" clip-rule="evenodd" d="M186.7 103.461C186.899 103.546 187.113 103.591 187.33 103.593C187.534 103.586 187.735 103.541 187.922 103.461C188.316 103.305 188.631 102.999 188.798 102.611L192.831 93.3389C192.995 92.9483 192.995 92.5083 192.831 92.1177C192.675 91.7229 192.369 91.4058 191.98 91.2365L173.877 83.3997C173.066 83.0525 172.126 83.4234 171.772 84.2306L167.745 93.5151C167.585 93.9085 167.585 94.3492 167.745 94.7425C167.902 95.1374 168.211 95.4527 168.602 95.6175L186.7 103.461ZM172.396 84.4824C172.549 84.128 172.898 83.898 173.284 83.897C173.408 83.8991 173.531 83.927 173.643 83.9788L191.734 91.8219C191.973 91.9215 192.16 92.1151 192.251 92.3569C192.349 92.5927 192.349 92.8576 192.251 93.0934L188.218 102.384C188.119 102.621 187.928 102.807 187.689 102.9C187.451 102.998 187.184 102.998 186.945 102.9L168.842 95.0573C168.356 94.8469 168.132 94.2851 168.338 93.7984L172.396 84.4824Z" fill="#D1D3D4"/>
<path d="M179.793 94.8936C179.686 94.8959 179.585 94.8408 179.529 94.7489L172.597 83.8089C172.505 83.6611 172.55 83.4667 172.698 83.3746C172.846 83.2824 173.041 83.3275 173.133 83.4753L179.926 94.2327L192.434 91.8345C192.516 91.816 192.602 91.8317 192.672 91.878C192.742 91.9244 192.79 91.9973 192.805 92.08C192.836 92.2516 192.724 92.4165 192.553 92.4513L179.838 94.8936H179.793Z" fill="#D1D3D4"/>
<path d="M187.695 103.536C187.59 103.536 187.491 103.484 187.431 103.398L181.394 94.4279C181.299 94.2835 181.338 94.0896 181.482 93.9936C181.551 93.9463 181.636 93.929 181.718 93.9456C181.8 93.9622 181.872 94.0113 181.917 94.0817L187.954 103.077C188.049 103.223 188.01 103.419 187.865 103.517C187.811 103.538 187.753 103.545 187.695 103.536Z" fill="#D1D3D4"/>
<path d="M168.086 95.0572C167.93 95.0592 167.796 94.9468 167.771 94.7929C167.758 94.7102 167.779 94.6259 167.829 94.5586C167.878 94.4913 167.953 94.4465 168.035 94.4341L178.747 92.6842C178.86 92.6662 178.974 92.7096 179.046 92.7979C179.117 92.8863 179.137 93.0063 179.096 93.1127C179.055 93.219 178.961 93.2957 178.848 93.3136L168.136 95.0635L168.086 95.0572Z" fill="#D1D3D4"/>
<path d="M50.5967 11.2347C50.8596 10.4423 51.7149 10.0129 52.5075 10.2754L65.1094 14.4484C65.9027 14.7111 66.3326 15.5673 66.0694 16.3604L64.0995 22.2966C63.8366 23.089 62.9813 23.5184 62.1887 23.2559L49.5868 19.0829C48.7935 18.8202 48.3636 17.964 48.6268 17.1709L50.5967 11.2347Z" fill="white"/>
<path fill-rule="evenodd" clip-rule="evenodd" d="M62.6218 23.7273C62.7479 23.7687 62.8797 23.7899 63.0125 23.7902C63.5559 23.7907 64.0385 23.4431 64.2097 22.9279L66.5348 15.9031C66.7512 15.2463 66.3967 14.5381 65.7409 14.3169L52.0483 9.78481C51.3909 9.57332 50.6855 9.92983 50.4667 10.5842L48.1352 17.609C48.031 17.9245 48.0559 18.2684 48.2045 18.5657C48.3534 18.8629 48.6139 19.0891 48.9292 19.1952L62.6218 23.7273ZM63.296 23.1293C63.1426 23.1923 62.9705 23.1923 62.8171 23.1293L49.1434 18.6287C48.9857 18.5779 48.8544 18.4671 48.7779 18.3202C48.7181 18.1664 48.7181 17.9957 48.7779 17.8419L51.1094 10.8171C51.1617 10.662 51.2724 10.5333 51.4182 10.4583C51.5665 10.3831 51.7387 10.3695 51.8971 10.4206L65.5897 14.9527C65.7461 15.0064 65.8751 15.1194 65.9488 15.2674C66.0119 15.4206 66.0119 15.5925 65.9488 15.7458L63.6111 22.7642C63.5587 22.9229 63.4454 23.0542 63.296 23.1293Z" fill="#D1D3D4"/>
<path d="M57.0578 17.9487C56.9589 17.9477 56.8659 17.9012 56.8058 17.8228L51.0402 10.307C50.9467 10.1694 50.9766 9.98293 51.1084 9.8813C51.2401 9.77967 51.4283 9.79797 51.538 9.92307L57.1524 17.2688L66.0497 14.751C66.1308 14.7279 66.2178 14.7381 66.2912 14.7795C66.3646 14.821 66.4183 14.89 66.4404 14.9713C66.4846 15.1381 66.3863 15.3093 66.2199 15.3553L57.1209 17.9612L57.0578 17.9487Z" fill="#D1D3D4"/>
<path d="M63.3716 23.7273C63.2753 23.7288 63.1841 23.6844 63.1259 23.6077L58.1479 17.4516C58.0383 17.316 58.0595 17.1173 58.1952 17.0078C58.3309 16.8983 58.5298 16.9195 58.6394 17.055L63.6174 23.2174C63.7246 23.3532 63.7021 23.55 63.567 23.658C63.5113 23.702 63.4426 23.7264 63.3716 23.7273Z" fill="#D1D3D4"/>
<path d="M48.5196 18.8173C48.407 18.8308 48.2958 18.7833 48.2278 18.6927C48.1598 18.602 48.1454 18.4821 48.19 18.3779C48.2346 18.2738 48.3314 18.2014 48.4439 18.1879L56.1189 16.224C56.1999 16.2029 56.286 16.215 56.3581 16.2576C56.4303 16.3001 56.4825 16.3695 56.5032 16.4506C56.5241 16.5307 56.5119 16.6159 56.4692 16.687C56.4265 16.758 56.357 16.8089 56.2764 16.8282L48.6015 18.7984L48.5196 18.8173Z" fill="#D1D3D4"/>
</svg>
